<svg xmlns="http://www.w3.org/2000/svg" width="100%" height="100%" version="1.1" viewBox="0 0 171.142 41.429" data-tag="tren1_2" data-kroki-type="vehicle" data-kroki-view="upsideDown" data-kroki-source-base="tren1" data-kroki-length-m="16" data-kroki-width-m="2.9" data-kroki-height-m="3.9" data-kroki-default-color="#ff0000" data-kroki-ghost-dash="1 1">
  <path data-kroki-role="body" data-kroki-fill="fixed" data-kroki-paintable="false" data-kroki-ghost="auto" d="M 15.969 0.15 L 161.501 0.15 A 1.055 1.055 0 0 1 161.501 41.279 L 15.969 41.279 Q 12.805 41.279 12.805 38.115 L 12.805 23.351 L 9.641 23.351 A 1.055 1.055 0 0 1 9.641 19.132 L 12.805 19.132 L 12.805 3.314 Q 12.805 0.15 15.969 0.15 Z Z" fill="#ffffff" stroke="#000000" stroke-width="0.3" stroke-linecap="butt" stroke-linejoin="round" />
  <path data-kroki-role="damage-cross" data-kroki-fill="none" data-kroki-paintable="false" data-kroki-ghost="auto" d="M 15.969 0.15 L 161.501 41.279 M 161.501 0.15 L 15.969 41.279" fill="none" stroke="#000000" stroke-width="0.3" stroke-linecap="butt" stroke-linejoin="round" />
  <path data-kroki-role="wheel" data-kroki-fill="fixed" data-kroki-paintable="false" data-kroki-ghost="preserve" d="M 22.296 4.368 L 32.842 4.368 L 32.842 7.532 L 28.624 7.532 L 28.624 9.641 L 42.333 9.641 L 42.333 7.532 L 38.115 7.532 L 38.115 4.368 L 48.661 4.368 L 48.661 7.532 L 44.442 7.532 L 44.442 9.641 L 58.152 9.641 L 58.152 7.532 L 53.934 7.532 L 53.934 4.368 L 64.479 4.368 L 64.479 7.532 L 60.261 7.532 L 60.261 9.641 L 73.971 9.641 L 73.971 7.532 L 69.752 7.532 L 69.752 4.368 L 80.298 4.368 L 80.298 7.532 L 76.08 7.532 L 76.08 11.75 L 53.934 11.75 L 53.934 29.678 L 76.08 29.678 L 76.08 33.897 L 80.298 33.897 L 80.298 37.06 L 69.752 37.06 L 69.752 33.897 L 73.971 33.897 L 73.971 31.787 L 60.261 31.787 L 60.261 33.897 L 64.479 33.897 L 64.479 37.06 L 53.934 37.06 L 53.934 33.897 L 58.152 33.897 L 58.152 31.787 L 44.442 31.787 L 44.442 33.897 L 48.661 33.897 L 48.661 37.06 L 38.115 37.06 L 38.115 33.897 L 42.333 33.897 L 42.333 31.787 L 28.624 31.787 L 28.624 33.897 L 32.842 33.897 L 32.842 37.06 L 22.296 37.06 L 22.296 33.897 L 26.514 33.897 L 26.514 29.678 L 47.606 29.678 L 47.606 11.75 L 26.514 11.75 L 26.514 7.532 L 22.296 7.532 L 22.296 7.532 Z M 117.208 4.368 L 127.754 4.368 L 127.754 7.532 L 123.536 7.532 L 123.536 9.641 L 137.245 9.641 L 137.245 7.532 L 133.027 7.532 L 133.027 4.368 L 143.573 4.368 L 143.573 7.532 L 139.354 7.532 L 139.354 9.641 L 153.064 9.641 L 153.064 7.532 L 148.846 7.532 L 148.846 4.368 L 159.391 4.368 L 159.391 7.532 L 155.173 7.532 L 155.173 11.75 L 141.464 11.75 L 141.464 29.678 L 155.173 29.678 L 155.173 33.897 L 159.391 33.897 L 159.391 37.06 L 148.846 37.06 L 148.846 33.897 L 153.064 33.897 L 153.064 31.787 L 139.354 31.787 L 139.354 33.897 L 143.573 33.897 L 143.573 37.06 L 133.027 37.06 L 133.027 33.897 L 137.245 33.897 L 137.245 31.787 L 123.536 31.787 L 123.536 33.897 L 127.754 33.897 L 127.754 37.06 L 117.208 37.06 L 117.208 33.897 L 121.427 33.897 L 121.427 29.678 L 135.136 29.678 L 135.136 11.75 L 121.427 11.75 L 121.427 7.532 L 117.208 7.532 L 117.208 7.532 Z" fill="#000000" stroke="#000000" stroke-width="0.3" stroke-linejoin="round" />
</svg>
