<svg xmlns="http://www.w3.org/2000/svg" width="100%" height="100%" version="1.1" viewBox="0 0 190.019 35.714" data-tag="cekici1_2" data-kroki-type="vehicle" data-kroki-view="upsideDown" data-kroki-source-base="cekici1" data-kroki-length-m="16.5" data-kroki-width-m="2.5" data-kroki-height-m="3.6" data-kroki-default-color="#ff0000" data-kroki-ghost-dash="1 1">
  <path data-kroki-role="body" data-kroki-fill="fixed" data-kroki-paintable="false" data-kroki-ghost="auto" d="M 145.18 35.564 L 0.15 35.564 L 0.15 0.15 L 145.18 0.15 L 145.18 10.268 L 143.494 10.268 L 143.494 11.955 L 159.514 11.955 L 159.514 4.366 A 0.843 0.843 0 0 1 155.298 4.366 A 0.843 0.843 0 0 1 159.514 4.366 L 159.514 1.836 Q 159.514 0.993 160.357 0.993 L 183.124 0.993 Q 184.81 0.993 185.653 3.523 L 189.026 15.328 Q 189.869 17.857 189.026 20.387 L 185.653 32.191 Q 184.81 34.721 183.124 34.721 L 160.357 34.721 Q 159.514 34.721 159.514 33.878 L 159.514 31.348 A 0.843 0.843 0 0 1 155.298 31.348 A 0.843 0.843 0 0 1 159.514 31.348 L 159.514 23.76 L 143.494 23.76 L 143.494 25.446 L 145.18 25.446 Z" fill="#ffffff" stroke="#000000" stroke-width="0.3" stroke-linecap="butt" stroke-linejoin="round" />
  <path data-kroki-role="damage-cross" data-kroki-fill="none" data-kroki-paintable="false" data-kroki-ghost="auto" d="M 0.15 0.15 L 145.18 35.564 M 0.15 35.564 L 145.18 0.15 M 159.514 1.836 L 185.653 32.191 M 159.514 33.878 L 185.653 3.523 M 145.18 35.564 L 0.15 35.564 L 0.15 0.15 L 145.18 0.15 L 145.18 10.268 L 143.494 10.268 L 143.494 11.955 L 145.18 11.955 L 159.514 11.955 L 159.514 4.366 A 0.843 0.843 0 0 1 155.298 4.366 A 0.843 0.843 0 0 1 159.514 4.366 L 159.514 1.836 Q 159.514 0.993 160.357 0.993 L 183.124 0.993 Q 184.81 0.993 185.653 3.523 L 189.026 15.328 Q 189.869 17.857 189.026 20.387 L 185.653 32.191 Q 184.81 34.721 183.124 34.721 L 160.357 34.721 Q 159.514 34.721 159.514 33.878 L 159.514 31.348 A 0.843 0.843 0 0 1 155.298 31.348 A 0.843 0.843 0 0 1 159.514 31.348 L 159.514 23.76 L 143.494 23.76 L 143.494 25.446 L 145.18 25.446 Z M 143.494 11.955 L 121.57 11.955 L 121.57 23.76 L 143.494 23.76" fill="none" stroke="#000000" stroke-width="0.3" stroke-linecap="butt" stroke-linejoin="round" />
  <path data-kroki-role="wheel" data-kroki-fill="fixed" data-kroki-paintable="false" data-kroki-ghost="preserve" d="M 11.955 1.836 L 20.387 1.836 Q 21.23 1.836 21.23 2.68 L 21.23 4.366 Q 21.23 5.209 20.387 5.209 L 17.014 5.209 L 17.014 6.052 L 20.387 6.052 Q 21.23 6.052 21.23 6.896 L 21.23 8.582 Q 21.23 9.425 20.387 9.425 L 17.014 9.425 L 17.014 26.289 L 20.387 26.289 Q 21.23 26.289 21.23 27.132 L 21.23 28.819 Q 21.23 29.662 20.387 29.662 L 17.014 29.662 L 17.014 30.505 L 20.387 30.505 Q 21.23 30.505 21.23 31.348 L 21.23 33.035 Q 21.23 33.878 20.387 33.878 L 11.955 33.878 Q 11.112 33.878 11.112 33.035 L 11.112 31.348 Q 11.112 30.505 11.955 30.505 L 15.328 30.505 L 15.328 29.662 L 11.955 29.662 Q 11.112 29.662 11.112 28.819 L 11.112 27.132 Q 11.112 26.289 11.955 26.289 L 15.328 26.289 L 15.328 9.425 L 11.955 9.425 Q 11.112 9.425 11.112 8.582 L 11.112 6.896 Q 11.112 6.052 11.955 6.052 L 15.328 6.052 L 15.328 5.209 L 11.955 5.209 Q 11.112 5.209 11.112 4.366 L 11.112 2.68 Q 11.112 1.836 11.955 1.836 Z M 25.446 1.836 L 33.878 1.836 Q 34.721 1.836 34.721 2.68 L 34.721 4.366 Q 34.721 5.209 33.878 5.209 L 30.505 5.209 L 30.505 6.052 L 33.878 6.052 Q 34.721 6.052 34.721 6.896 L 34.721 8.582 Q 34.721 9.425 33.878 9.425 L 30.505 9.425 L 30.505 26.289 L 33.878 26.289 Q 34.721 26.289 34.721 27.132 L 34.721 28.819 Q 34.721 29.662 33.878 29.662 L 30.505 29.662 L 30.505 30.505 L 33.878 30.505 Q 34.721 30.505 34.721 31.348 L 34.721 33.035 Q 34.721 33.878 33.878 33.878 L 25.446 33.878 Q 24.603 33.878 24.603 33.035 L 24.603 31.348 Q 24.603 30.505 25.446 30.505 L 28.819 30.505 L 28.819 29.662 L 25.446 29.662 Q 24.603 29.662 24.603 28.819 L 24.603 27.132 Q 24.603 26.289 25.446 26.289 L 28.819 26.289 L 28.819 9.425 L 25.446 9.425 Q 24.603 9.425 24.603 8.582 L 24.603 6.896 Q 24.603 6.052 25.446 6.052 L 28.819 6.052 L 28.819 5.209 L 25.446 5.209 Q 24.603 5.209 24.603 4.366 L 24.603 2.68 Q 24.603 1.836 25.446 1.836 Z M 38.937 1.836 L 47.369 1.836 Q 48.212 1.836 48.212 2.68 L 48.212 4.366 Q 48.212 5.209 47.369 5.209 L 43.996 5.209 L 43.996 6.052 L 47.369 6.052 Q 48.212 6.052 48.212 6.896 L 48.212 8.582 Q 48.212 9.425 47.369 9.425 L 43.996 9.425 L 43.996 26.289 L 47.369 26.289 Q 48.212 26.289 48.212 27.132 L 48.212 28.819 Q 48.212 29.662 47.369 29.662 L 43.996 29.662 L 43.996 30.505 L 47.369 30.505 Q 48.212 30.505 48.212 31.348 L 48.212 33.035 Q 48.212 33.878 47.369 33.878 L 38.937 33.878 Q 38.094 33.878 38.094 33.035 L 38.094 31.348 Q 38.094 30.505 38.937 30.505 L 42.31 30.505 L 42.31 29.662 L 38.937 29.662 Q 38.094 29.662 38.094 28.819 L 38.094 27.132 Q 38.094 26.289 38.937 26.289 L 42.31 26.289 L 42.31 9.425 L 38.937 9.425 Q 38.094 9.425 38.094 8.582 L 38.094 6.896 Q 38.094 6.052 38.937 6.052 L 42.31 6.052 L 42.31 5.209 L 38.937 5.209 Q 38.094 5.209 38.094 4.366 L 38.094 2.68 Q 38.094 1.836 38.937 1.836 Z M 121.57 1.836 L 130.002 1.836 Q 130.846 1.836 130.846 2.68 L 130.846 4.366 Q 130.846 5.209 130.002 5.209 L 126.63 5.209 L 126.63 6.052 L 130.002 6.052 Q 130.846 6.052 130.846 6.896 L 130.846 8.582 Q 130.846 9.425 130.002 9.425 L 126.63 9.425 L 126.63 26.289 L 130.002 26.289 Q 130.846 26.289 130.846 27.132 L 130.846 28.819 Q 130.846 29.662 130.002 29.662 L 126.63 29.662 L 126.63 30.505 L 130.002 30.505 Q 130.846 30.505 130.846 31.348 L 130.846 33.035 Q 130.846 33.878 130.002 33.878 L 121.57 33.878 Q 120.727 33.878 120.727 33.035 L 120.727 31.348 Q 120.727 30.505 121.57 30.505 L 124.943 30.505 L 124.943 29.662 L 121.57 29.662 Q 120.727 29.662 120.727 28.819 L 120.727 27.132 Q 120.727 26.289 121.57 26.289 L 124.943 26.289 L 124.943 9.425 L 121.57 9.425 Q 120.727 9.425 120.727 8.582 L 120.727 6.896 Q 120.727 6.052 121.57 6.052 L 124.943 6.052 L 124.943 5.209 L 121.57 5.209 Q 120.727 5.209 120.727 4.366 L 120.727 2.68 Q 120.727 1.836 121.57 1.836 Z M 170.476 1.836 L 178.908 1.836 Q 179.751 1.836 179.751 2.68 L 179.751 4.366 Q 179.751 5.209 178.908 5.209 L 175.535 5.209 L 175.535 30.505 L 178.908 30.505 Q 179.751 30.505 179.751 31.348 L 179.751 33.035 Q 179.751 33.878 178.908 33.878 L 170.476 33.878 Q 169.633 33.878 169.633 33.035 L 169.633 31.348 Q 169.633 30.505 170.476 30.505 L 173.849 30.505 L 173.849 5.209 L 170.476 5.209 Q 169.633 5.209 169.633 4.366 L 169.633 2.68 Q 169.633 1.836 170.476 1.836 Z" fill="#000000" stroke="#000000" stroke-width="0.3" stroke-linejoin="round" />
</svg>
