<svg xmlns="http://www.w3.org/2000/svg" width="100%" height="100%" version="1.1" viewBox="0 0 65.365 27.857" data-tag="kamyonet1_0" data-kroki-type="vehicle" data-kroki-view="top" data-kroki-source-base="kamyonet1" data-kroki-length-m="5.25" data-kroki-width-m="1.95" data-kroki-height-m="1.85" data-kroki-default-color="#000000" data-kroki-ghost-dash="1 1">
  <path data-kroki-role="body" data-kroki-fill="vehicle" data-kroki-paintable="true" data-kroki-ghost="auto" d="M 44.548 0.15 L 45.313 1.681 L 11.632 1.681 Q 9.336 1.681 7.805 2.446 Q 3.977 2.446 2.446 3.212 Q 0.915 3.977 0.915 4.743 Q 0.15 13.929 0.915 23.114 Q 0.915 23.88 2.446 24.645 Q 3.977 25.411 7.805 25.411 Q 9.336 26.176 11.632 26.176 L 45.313 26.176 L 44.548 27.707 L 45.313 27.707 L 46.844 26.176 L 57.561 26.176 Q 65.215 26.176 65.215 20.818 L 65.215 7.039 Q 65.215 1.681 57.561 1.681 L 46.844 1.681 L 45.313 0.15 Z" fill="#000000" stroke="#000000" stroke-width="0.3" stroke-linecap="butt" stroke-linejoin="round" />
  <path data-kroki-role="detail" data-kroki-fill="fixed" data-kroki-paintable="false" data-kroki-ghost="preserve" d="M 33.831 2.446 L 19.287 2.446 L 20.052 3.977 L 33.065 3.977 Z M 34.596 2.446 L 33.831 3.977 L 45.313 3.212 L 45.313 2.446 Z M 8.57 3.977 L 19.287 3.977 L 18.521 2.446 L 7.039 3.212 Z M 63.685 7.805 Q 63.685 4.743 59.857 3.212 Q 62.154 5.508 62.919 7.805 Z M 2.446 5.508 L 3.977 3.212 L 2.446 3.977 Z M 40.72 5.508 Q 43.782 13.929 40.72 22.349 L 50.671 23.88 Q 52.968 13.929 50.671 3.977 L 40.72 5.508 M 3.977 4.743 Q 3.212 13.929 3.977 23.114 L 7.039 22.349 Q 6.274 13.929 7.039 5.508 Z M 62.919 20.052 Q 62.154 22.349 59.857 24.645 Q 63.685 23.114 63.685 20.052 L 62.919 20.052 M 2.446 22.349 L 2.446 23.88 L 3.977 24.645 Z M 7.039 24.645 L 18.521 25.411 L 19.287 23.88 L 8.57 23.88 Z M 19.287 25.411 L 33.831 25.411 L 33.065 23.88 L 20.052 23.88 Z M 45.313 24.645 L 33.831 23.88 L 34.596 25.411 L 45.313 25.411 Z" fill="#ffffff" stroke="#000000" stroke-width="0.3" stroke-linejoin="round" />
</svg>
