<svg xmlns="http://www.w3.org/2000/svg" width="100%" height="100%" version="1.1" viewBox="0 0 22.256 15.149" data-tag="motosiklet_1" data-kroki-type="vehicle" data-kroki-view="side" data-kroki-source-base="motosiklet" data-kroki-length-m="2.15" data-kroki-width-m="0.8" data-kroki-height-m="1.2" data-kroki-default-color="#ff0000" data-kroki-ghost-dash="1 1">
  <path data-kroki-role="body" data-kroki-fill="vehicle" data-kroki-paintable="true" data-kroki-ghost="auto" d="M 13.255 0.15 L 13.414 0.15 C 13.466 0.203 13.519 0.256 13.599 0.309 L 13.519 1.075 C 13.784 1.26 14.153 1.392 14.206 1.762 L 14.233 3.532 L 14.682 3.849 L 15.21 2.264 L 15.739 3.321 L 15.342 4.404 L 16.135 5.117 C 16.373 4.721 16.769 4.483 17.139 4.219 C 17.43 4.034 17.8 3.902 18.09 4.113 C 18.407 4.298 18.46 4.721 18.46 5.064 C 18.46 5.487 18.513 5.91 18.354 6.333 C 18.275 6.57 18.011 6.782 17.72 6.755 C 17.35 6.729 17.06 6.465 16.743 6.28 L 17.958 8.526 C 18.724 8.367 19.57 8.42 20.257 8.79 C 21.208 9.265 21.921 10.269 22.001 11.326 C 22.106 12.172 21.869 13.07 21.314 13.731 C 20.732 14.471 19.834 14.893 18.909 14.946 L 18.592 14.946 C 17.747 14.867 16.901 14.497 16.346 13.836 C 15.792 13.202 15.501 12.33 15.554 11.485 C 15.607 10.534 16.109 9.609 16.901 9.054 L 15.95 7.178 L 14.206 12.41 L 13.466 12.41 C 13.387 12.885 13.202 13.387 12.753 13.651 C 12.33 13.916 11.802 13.757 11.353 13.731 L 8.156 13.282 C 8.076 13.414 7.944 13.625 7.733 13.599 L 6.438 13.387 C 5.883 14.259 4.932 14.84 3.902 14.92 C 2.898 14.999 1.841 14.603 1.18 13.863 C 0.52 13.123 0.203 12.119 0.361 11.141 C 0.52 10.296 1.022 9.53 1.709 9.054 C 2.422 8.552 3.321 8.341 4.193 8.499 C 5.091 8.631 5.936 9.186 6.438 10.005 C 6.808 10.587 6.967 11.3 6.914 11.987 L 8.05 12.304 C 8.235 12.357 8.261 12.568 8.314 12.727 L 10.296 12.991 C 10.956 13.07 11.617 13.255 12.278 13.229 C 12.674 13.176 12.806 12.727 12.885 12.383 L 8.235 12.383 C 7.918 11.274 7.416 10.19 6.65 9.292 C 5.91 8.42 4.827 7.786 3.664 7.786 C 2.792 7.733 1.947 8.076 1.26 8.631 L 0.15 8.631 C 0.52 7.759 1.392 7.257 2.237 6.993 L 1.498 6.65 L 2.237 5.54 L 4.615 5.725 C 5.329 5.778 5.989 6.068 6.676 6.201 C 7.31 6.333 7.918 6.386 8.552 6.333 C 8.869 6.28 9.186 6.227 9.424 6.016 C 10.587 4.985 12.172 4.272 13.757 4.536 C 14.18 4.589 14.55 4.827 14.946 4.959 L 13.889 4.087 L 12.225 4.087 C 11.908 4.034 11.855 3.558 12.145 3.453 L 13.757 3.426 L 13.757 2 C 13.757 1.841 13.625 1.735 13.546 1.63 L 13.466 1.973 C 13.387 2.184 13.017 2.132 13.017 1.92 L 13.097 0.282 C 13.123 0.256 13.229 0.176 13.255 0.15 M 15.342 5.117 L 17.218 8.843 L 17.615 8.631 L 15.659 4.959 L 15.342 5.117 Z M 1.973 10.454 L 3.241 10.956 L 3.426 10.93 L 3.479 9.609 C 2.898 9.662 2.29 9.926 1.973 10.454 M 17.139 10.375 L 18.275 11.089 L 18.698 10.877 L 18.751 9.556 C 18.117 9.583 17.535 9.873 17.139 10.375 M 19.121 9.583 L 19.094 10.877 L 19.464 11.115 L 20.574 10.534 C 20.23 10.032 19.702 9.688 19.121 9.583 M 3.823 10.904 L 4.219 11.141 L 5.329 10.534 C 5.012 10.032 4.457 9.688 3.849 9.609 L 3.823 10.904 M 16.928 10.692 C 16.637 11.247 16.611 11.96 16.875 12.542 L 18.064 11.881 L 18.09 11.406 L 16.928 10.692 M 4.615 11.353 L 5.699 11.67 C 5.672 11.379 5.619 11.115 5.54 10.851 L 4.615 11.353 M 19.676 11.432 L 19.676 11.908 L 20.706 12.568 C 20.944 12.04 20.944 11.432 20.759 10.877 L 19.676 11.432 M 17.06 12.885 C 17.403 13.414 18.011 13.731 18.645 13.81 L 18.672 12.489 L 18.249 12.225 L 17.06 12.885 M 19.041 12.515 L 19.015 13.784 C 19.623 13.731 20.178 13.387 20.521 12.885 L 19.491 12.251 L 19.041 12.515 M 1.894 12.859 C 2.237 13.308 2.766 13.731 3.373 13.731 L 3.4 12.885 L 2.158 12.7 L 1.894 12.859 M 3.77 12.938 L 3.743 13.784 C 4.245 13.731 4.721 13.519 5.091 13.176 L 3.77 12.938 Z M 3.77 12.938 Z" fill="#ff0000" stroke="#000000" stroke-width="0.3" stroke-linecap="butt" stroke-linejoin="round" />
  <path data-kroki-role="window" data-kroki-fill="fixed" data-kroki-paintable="false" data-kroki-ghost="preserve" d="M 17.456 4.536 C 17.218 4.695 16.981 4.853 16.769 5.038 C 16.637 5.17 16.479 5.329 16.531 5.54 C 16.769 5.751 17.033 5.936 17.298 6.121 C 17.456 6.227 17.668 6.386 17.852 6.306 C 18.064 6.121 18.037 5.804 18.037 5.54 C 18.011 5.197 18.09 4.853 17.932 4.536 C 17.826 4.377 17.588 4.483 17.456 4.536 M 1.233 11.036 L 1.048 11.696 L 2.079 12.304 L 7.733 13.229 L 7.918 12.647 L 2.422 11.141 L 1.233 11.036 M 9.503 6.412 L 9.688 7.125 L 14.286 7.125 C 14.576 7.125 14.788 6.861 14.84 6.597 L 14.84 5.408 C 14.233 4.959 13.466 4.774 12.7 4.879 C 11.485 4.985 10.428 5.646 9.503 6.412 M 1.973 6.491 C 3.479 7.072 5.091 7.363 6.703 7.416 C 7.574 7.442 8.446 7.416 9.265 7.178 L 9.16 6.597 C 8.129 6.861 7.072 6.703 6.068 6.438 C 5.619 6.306 5.17 6.148 4.721 6.121 C 3.928 6.068 3.162 5.989 2.369 5.936 L 1.973 6.491 Z" fill="#ffffff" stroke="#000000" stroke-width="0.3" stroke-linejoin="round" />
</svg>
