<svg xmlns="http://www.w3.org/2000/svg" width="100%" height="100%" version="1.1" viewBox="0 0 22.256 11.429" data-tag="motosiklet_0" data-kroki-type="vehicle" data-kroki-view="top" data-kroki-source-base="motosiklet" data-kroki-length-m="2.15" data-kroki-width-m="0.8" data-kroki-height-m="1.2" data-kroki-default-color="#000000" data-kroki-ghost-dash="1 1">
  <path data-kroki-role="body" data-kroki-fill="vehicle" data-kroki-paintable="true" data-kroki-ghost="auto" d="M 14.888 0.15 L 15.189 1.353 L 15.489 1.955 L 15.489 0.451 L 15.79 0.15 L 15.79 1.955 L 17.294 4.962 L 22.106 4.962 L 22.106 4.962 L 22.106 4.962 A 0.301 0.301 0 0 1 22.106 6.466 L 22.106 6.466 L 17.294 6.466 L 15.79 9.775 L 15.79 11.279 L 15.489 10.978 L 15.489 9.474 L 15.189 10.075 L 14.888 11.279 L 14.587 10.978 L 14.888 9.474 L 14.587 9.474 L 15.189 7.97 L 15.189 7.97 Q 14.888 7.068 11.579 7.068 Q 7.97 7.068 7.068 8.271 L 3.458 8.271 L 3.759 7.369 L 1.052 7.369 L 1.052 6.767 L 3.759 6.767 L 0.451 6.165 L 0.15 6.165 A 0.301 0.301 0 0 1 0.15 5.263 L 0.451 5.263 L 3.759 4.361 L 3.759 4.361 L 3.458 3.458 L 7.068 3.458 Q 7.97 4.662 11.579 4.662 L 11.579 4.662 Q 14.888 4.361 15.189 3.458 L 14.587 1.955 L 14.888 1.955 L 14.587 0.451 L 14.888 0.15 Z M 10.677 4.962 L 10.677 4.361 L 10.376 4.361 L 10.376 3.458 C 10.677 3.158 10.978 3.158 11.279 3.458 L 11.279 4.361 L 10.978 4.361 L 10.978 4.962 L 10.677 4.962 L 10.677 4.962 Z M 10.677 6.767 L 10.978 6.767 L 10.978 7.369 L 11.279 7.369 L 11.279 8.271 C 10.978 8.572 10.677 8.572 10.376 8.271 L 10.376 7.369 L 10.677 7.369 L 10.677 6.767 L 10.677 6.767 Z" fill="#000000" stroke="#000000" stroke-width="0.3" stroke-linecap="butt" stroke-linejoin="round" />
  <path data-kroki-role="detail" data-kroki-fill="fixed" data-kroki-paintable="false" data-kroki-ghost="preserve" d="M 5.263 4.662 Q 7.369 5.564 10.677 5.564 A 0.301 0.301 0 0 1 10.677 6.165 Q 7.369 6.165 5.263 7.068 A 0.301 0.301 0 0 1 5.263 4.662 Z M 13.685 5.263 A 0.301 0.301 0 0 0 13.685 6.466 A 0.301 0.301 0 0 0 13.685 5.263 Z Z Z M 15.489 3.458 L 15.489 7.97 L 15.79 7.97 Q 17.294 5.865 15.79 3.458 Z" fill="#ffffff" stroke="#000000" stroke-width="0.3" stroke-linejoin="round" />
</svg>
