<svg xmlns="http://www.w3.org/2000/svg" width="100%" height="100%" version="1.1" viewBox="0 0 754 350" data-tag="beton-mikseri_1" data-kroki-type="vehicle" data-kroki-view="side" data-kroki-source-base="beton-mikseri" data-kroki-source="Beton Mikseri SİDE.svg" data-kroki-length-m="9.5" data-kroki-width-m="2.5" data-kroki-height-m="4.41" data-kroki-default-color="#000000" data-kroki-ghost-dash="1 1">
  <path data-kroki-role="body" data-kroki-fill="vehicle" data-kroki-paintable="true" data-kroki-ghost="auto" d="M81 2 122 2 91 76 196 193 334 240 430 240Q456 176 463 119 469 158 518 150L518 189 547 189 547 117 552 117 552 87Q552 77 545 77L545 69Q559 69 559 87L559 117 564 117 564 201 569 201 569 176 574 83 709 83 710 78Q733 81 735 98L720 99 738 157C740 162 745 166 745 172L752 210 752 264 739 304 665 313A1 1 0 00575 313L572 313 572 297 550 297 550 302 500 302 500 295 496 295A1 1 0 01475 295 1 1 0 01454 295 1 1 0 01433 295L364 295 364 313 350 313A1 1 0 00260 313L235 313A1 1 0 00145 313L139 313 138 275 126 275 126 311 119 311 119 274 84 297Q74 302 58 303L58 291Q81 288 102 271L88 271 88 255 103 255 104 187Q106 176 99 166L91 151 20 201 2 176 53 131 52 41Q52 2 81 2Z" fill="#000000" stroke="#000000" stroke-width="2" stroke-linejoin="round" />
  <path data-kroki-role="body" data-kroki-fill="vehicle" data-kroki-paintable="true" data-kroki-ghost="auto" d="M125 21 270 15 388 48 460 96Q451 165 420 227L334 227 209 185 105 70ZM468 118A1 1 0 01525 118 1 1 0 01468 118Z" fill="#000000" stroke="#000000" stroke-width="2" stroke-linejoin="round" />
  <path data-kroki-role="wheel" data-kroki-fill="fixed" data-kroki-paintable="false" data-kroki-ghost="preserve" d="M165 313A1 1 0 00215 313 1 1 0 00165 313ZM280 313A1 1 0 00330 313 1 1 0 00280 313ZM595 313A1 1 0 00645 313 1 1 0 00595 313Z" fill="#ffffff" stroke="#000000" stroke-width="20" stroke-linejoin="round" />
  <path data-kroki-role="detail" data-kroki-fill="none" data-kroki-paintable="false" data-kroki-ghost="preserve" d="M580 95 695 95Q700 95 705 100L730 200 730 290 668 290Q660 260 621 260L580 260Z" fill="none" stroke="#ffffff" stroke-width="2" stroke-linejoin="round" />
  <path data-kroki-role="window" data-kroki-fill="fixed" data-kroki-paintable="false" data-kroki-ghost="preserve" d="M615 100 685 100Q693 100 695 105L710 175Q711 180 705 180L615 180ZM585 105Q585 100 590 100L610 100 610 180 590 180Q585 180 585 175Z" fill="#ffffff" stroke="#000000" stroke-width="2" stroke-linejoin="round" />
  <path data-kroki-role="solid" data-kroki-fill="fixed" data-kroki-paintable="false" data-kroki-ghost="preserve" d="M88 255 103 255 103 271 88 271Z" fill="#ff0000" stroke="none" />
  <path data-kroki-role="detail" data-kroki-fill="fixed" data-kroki-paintable="false" data-kroki-ghost="preserve" d="M735 245A1 1 0 01750 245L750 260A1 1 0 01735 260Z" fill="#ffffff" stroke="#000000" stroke-width="2" stroke-linejoin="round" />
  <path data-kroki-role="solid" data-kroki-fill="fixed" data-kroki-paintable="false" data-kroki-ghost="preserve" d="M700 120 715 120Q719 120 720 125L730 170 711 170Z" fill="#000000" stroke="#ffffff" stroke-width="2" stroke-linejoin="round" />
</svg>
